<?xml version="1.0" standalone="no"?>
<!DOCTYPE svg PUBLIC "-//W3C//DTD SVG 20010904//EN"
 "http://www.w3.org/TR/2001/REC-SVG-20010904/DTD/svg10.dtd">
<svg version="1.0" xmlns="http://www.w3.org/2000/svg"
 width="420.000000pt" height="420.000000pt" viewBox="0 0 420.000000 420.000000"
 preserveAspectRatio="xMidYMid meet">
<metadata>
Created by potrace 1.14, written by Peter Selinger 2001-2017
</metadata>
<g transform="translate(0.000000,420.000000) scale(0.100000,-0.100000)"
fill="#000000" stroke="none">
<path d="M2022 3639 c-65 -12 -150 -55 -183 -90 -22 -24 -29 -40 -29 -73 0
-37 12 -101 26 -148 4 -13 0 -18 -13 -18 -31 0 -130 -28 -180 -52 -72 -33
-164 -99 -173 -124 -10 -26 -46 -64 -84 -88 -43 -27 -116 -98 -110 -108 3 -4
1 -8 -4 -8 -6 0 -13 -16 -16 -35 -4 -19 -10 -35 -14 -35 -19 0 -65 -127 -68
-185 -1 -33 -5 -71 -8 -85 -8 -34 -16 -71 -21 -96 -10 -47 -22 -182 -19 -224
10 -161 14 -201 23 -249 14 -69 2 -90 -32 -57 -31 31 -76 20 -95 -22 -22 -50
-21 -85 4 -266 3 -22 9 -47 14 -57 5 -9 7 -18 5 -21 -3 -3 2 -27 10 -54 8 -27
15 -50 15 -51 0 -2 -35 -3 -79 -3 -72 0 -80 -2 -106 -27 l-27 -27 6 -166 c4
-91 9 -199 12 -240 3 -41 7 -113 9 -160 2 -47 7 -144 10 -216 6 -103 4 -134
-6 -145 -8 -8 -20 -26 -28 -39 -28 -48 -79 -145 -80 -153 0 -4 -8 -24 -17 -45
-8 -20 -17 -44 -19 -52 -2 -8 -8 -27 -14 -43 -10 -26 -17 -52 -26 -102 -2 -11
-7 -32 -10 -47 l-5 -28 1389 0 1389 0 -20 93 c-25 112 -75 255 -124 347 l-36
68 7 134 c4 73 8 160 10 193 2 33 6 132 10 220 4 88 9 168 10 177 4 17 7 132
6 181 -1 17 -12 38 -27 52 -24 22 -36 25 -102 25 -67 0 -73 2 -67 18 4 9 9 26
11 37 2 11 6 31 9 45 40 184 47 258 30 324 -7 27 -20 55 -29 62 -19 14 -53 8
-78 -13 -35 -30 -41 -5 -22 91 27 138 21 347 -12 480 -9 33 -17 90 -18 126 -2
54 -9 77 -39 130 -19 36 -51 94 -70 130 -33 62 -104 140 -127 140 -5 0 -10 4
-10 9 0 5 -9 13 -20 16 -11 4 -29 23 -40 44 -10 21 -31 48 -47 60 -29 23 -94
64 -103 66 -3 0 -14 6 -25 12 -16 8 -82 32 -105 38 -3 1 -18 7 -33 13 -16 7
-33 12 -38 12 -12 0 -11 17 1 60 20 69 22 119 4 148 -17 30 -88 80 -123 87
-12 3 -31 8 -43 11 -42 10 -143 12 -186 3z"/>
</g>
</svg>
